inDegrees=no
num_controls=7
num_derivatives=13
num_iterations=94
num_multipliers=7
num_parameters=0
num_slacks=7
num_states=26
objective=5.059464
objective_accelerations=0.708575
objective_balance=0.022488
objective_effort=0.233359
objective_height=4.068048
objective_ligament=0.026994
solver_duration=1093.391375
status=Solve_Succeeded
success=true
DataType=double
version=3
OpenSimVersion=4.4-2022-07-23-0e9fedc
endheader
time	/jointset/ground_pelvis/pelvis_tilt/value	/jointset/ground_pelvis/pelvis_tx/value	/jointset/ground_pelvis/pelvis_ty/value	/jointset/hip_l/hip_flexion_l/value	/jointset/hip_l/hip_adduction_l/value	/jointset/hip_l/hip_rotation_l/value	/jointset/back/lumbar_extension/value	/jointset/patellofemoral_l/patellar_flexion_l/value	/jointset/knee_l/knee_flexion_l/value	/jointset/knee_l/knee_adduction_l/value	/jointset/knee_l/knee_rotation_l/value	/jointset/ankle_l/ankle_angle_l/value	/jointset/subtalar_l/subtalar_angle_l/value	/jointset/ground_pelvis/pelvis_tilt/speed	/jointset/ground_pelvis/pelvis_tx/speed	/jointset/ground_pelvis/pelvis_ty/speed	/jointset/hip_l/hip_flexion_l/speed	/jointset/hip_l/hip_adduction_l/speed	/jointset/hip_l/hip_rotation_l/speed	/jointset/back/lumbar_extension/speed	/jointset/patellofemoral_l/patellar_flexion_l/speed	/jointset/knee_l/knee_flexion_l/speed	/jointset/knee_l/knee_adduction_l/speed	/jointset/knee_l/knee_rotation_l/speed	/jointset/ankle_l/ankle_angle_l/speed	/jointset/subtalar_l/subtalar_angle_l/speed	/forceset/tau_hip_flexion_l	/forceset/tau_hip_adduction_l	/forceset/tau_hip_rotation_l	/forceset/tau_knee_flexion_l	/forceset/tau_ankle_angle_l	/forceset/tau_subtalar_angle_l	/forceset/tau_lumbar_extension	lambda_cid13_p0	lambda_cid13_p1	lambda_cid13_p2	lambda_cid13_p3	lambda_cid13_p4	lambda_cid13_p5	lambda_cid14_p0	/jointset/ground_pelvis/pelvis_tilt/accel	/jointset/ground_pelvis/pelvis_tx/accel	/jointset/ground_pelvis/pelvis_ty/accel	/jointset/hip_l/hip_flexion_l/accel	/jointset/hip_l/hip_adduction_l/accel	/jointset/hip_l/hip_rotation_l/accel	/jointset/back/lumbar_extension/accel	/jointset/patellofemoral_l/patellar_flexion_l/accel	/jointset/knee_l/knee_flexion_l/accel	/jointset/knee_l/knee_adduction_l/accel	/jointset/knee_l/knee_rotation_l/accel	/jointset/ankle_l/ankle_angle_l/accel	/jointset/subtalar_l/subtalar_angle_l/accel	gamma_cid13_p0	gamma_cid13_p1	gamma_cid13_p2	gamma_cid13_p3	gamma_cid13_p4	gamma_cid13_p5	gamma_cid14_p0
0.5	-0.4225061016825272	-0.06936229245136119	0.7687272183046651	1.215547538184303	-0.3652294736635885	-0.041157128418029	-0.4101254755231556	0.7375984231352417	0.7375984231351798	-0.08291514632761726	-0.1744996901803179	0.04775809493638	0.06930887525609178	-1.314804027114759	-0.4102842547655232	-0.5242004167889001	2.954959948964631	0.05616550774517534	0.4693763352665726	-0.2763750590287742	1.400346211022181	1.400346211022203	0.2131100018771215	-0.001109247767980553	-0.1291654130987274	0.0154629281936812	-0.1689576922053479	0.001572140597812585	0.01165124835500653	-0.1521607646621497	0.1028257708618357	-0.0007099032562843318	0.1525486769277609	7.800629381416928	-0.4145973626383337	-0.949287417377535	-9.383319611380751	-435.737298358708	-62.36618235659753	-13.83775255764068	0.5625167402518176	0.7522716855567322	-0.3865105382687685	-1.83141334109121	0.2005277921738907	-0.4793601884243776	1.663580356158198	-1.14645270774428	-1.146452707744288	-0.2603485146008463	0.0933392338233005	0.003480698835124232	0.2116481384905615	-1.412169344290701e-07	-8.917479662114867e-07	6.716919428916185e-07	-1.354418600657863e-07	-5.271421859215492e-07	4.791296038163529e-07	-2.981298662755189e-07
0.51	-0.4356230583122123	-0.07342694379874586	0.7634672111636972	1.24499974370813	-0.3646598130588911	-0.03648870012344618	-0.412807419876206	0.7515421130175007	0.7515421130180211	-0.08080031451615483	-0.1745085486422505	0.04646621235918668	0.06947186593135686	-1.308412488245432	-0.4025996692029472	-0.527679031582025	2.935078993816592	0.05773257927402914	0.4642387044877567	-0.260019459625203	1.388189741133706	1.388189741133701	0.2098164239229544	-0.0007011767514499985	-0.1292049507624566	0.01710188383410153	-0.1758303518322842	0.00228054335784602	0.01118087572134385	-0.1525762267485831	0.1046766173960777	0.0001137200788608459	0.1573115395300204	8.241705001901657	-0.7113983415642668	-1.059744397885364	-9.758065419669068	-439.4798837994706	-62.48739089759422	-13.26688210686798	0.7036533638353331	0.783477992758068	-0.3103429121654342	-2.126810485701638	0.1297748387460574	-0.541795013935114	1.62070252696002	-1.280488960991689	-1.280488960994715	-0.3700198376215518	0.008908113578310055	-0.006779618322682474	0.1350735407245605	-1.344289389229379e-07	-8.134953897804737e-07	6.583497388384215e-07	-1.27933597522547e-07	-4.912730904976236e-07	4.889871484431812e-07	-2.843576092154139e-07
0.52	-0.4486708633726135	-0.07741336409027386	0.7581760566823293	1.274241064903514	-0.3640754861377962	-0.03187381423499639	-0.4153259776763571	0.7653581892351886	0.7653581892351787	-0.07871964996677232	-0.1745144529787161	0.04517411268148398	0.06965025701580686	-1.300973713233444	-0.3946380435941874	-0.5304298848690544	2.912783083306912	0.05909877102314102	0.4586678540559991	-0.2436977484414344	1.374823477981477	1.374823477981445	0.2062765498969129	-0.0005184226145881791	-0.1292088332000582	0.01854301003076847	-0.1827030114600502	0.002988946117506497	0.01071050307852492	-0.1529916888348515	0.1065274639302581	0.0009373434137083334	0.1620744021315276	8.682086241681722	-1.010506879505755	-1.167058772591138	-10.14350085276688	-443.2381308187367	-62.66830087469681	-12.69920821900693	0.7719639687852218	0.807679694793223	-0.2409582370496665	-2.314404413419438	0.1603518362248691	-0.5660041190125099	1.656802712198152	-1.388411360495116	-1.388411360495102	-0.3096077289760029	0.04827585788961705	0.01061174406022587	0.1720822497396725	-1.229743937715799e-07	-7.516093952453626e-07	5.925436454905121e-07	-1.25531818998937e-07	-4.439847650333854e-07	4.845446073272898e-07	-2.646477609426136e-07
0.53	-0.4616392602105409	-0.08131891777287044	0.7528610332381703	1.303247901734409	-0.3634780713135337	-0.0273162363219233	-0.417681579708172	0.7790347959108223	0.779034795911787	-0.07667499346702197	-0.1745188614915067	0.04388227117161705	0.06984255227527375	-1.292536397020032	-0.3864381399575648	-0.5324508579890291	2.888206376697967	0.06037579948895246	0.4528270603575031	-0.2274533206419494	1.360308024896551	1.360308024896531	0.2026379598302626	-0.000338694282446994	-0.1291485366291766	0.01991038814578192	-0.1895546506356196	0.003574518775378368	0.01023906740901243	-0.1533324890914797	0.1081663473612211	0.001669827374515257	0.1667342638811336	9.045521991616665	-1.263758458644	-1.273462848970942	-10.40466788141879	-447.0011451381341	-62.77922171274475	-12.13509288114247	0.9049675812822722	0.8313037895200691	-0.1641587823261307	-2.58603341779734	0.1101941996526009	-0.5964213542725547	1.603663406680034	-1.511536278490833	-1.511536278487728	-0.3936514271206775	0.00665601917009874	0.00535101640983607	0.1182660903750937	-1.067891925653129e-07	-7.099469547874836e-07	4.730503232765991e-07	-1.307522921052147e-07	-3.875955771944477e-07	4.626238043896822e-07	-2.397863519553813e-07
0.54	-0.4745182134597407	-0.085141440800814	0.7475295016762361	1.331997625572372	-0.3628681230350075	-0.02281772721802761	-0.4198756573434649	0.7925605632575041	0.7925605632574982	-0.07466725622718398	-0.1745207057802507	0.04259135510802665	0.07004836141548818	-1.283084995459864	-0.3780319126635881	-0.5337315084242394	2.861360484762451	0.06160546187080976	0.4468540922988884	-0.2113928691281571	1.344655611971564	1.344655611971557	0.1988926984991071	-5.578018690149566e-06	-0.1290237439460458	0.02124578618044811	-0.1964062898126542	0.004160091431600349	0.009767631725641004	-0.1536732893481422	0.1098052307917435	0.002402311333653825	0.1713941256296432	9.408020611624551	-1.518949193741228	-1.377155241440158	-10.67705070153853	-450.7854740035817	-62.94374448883492	-11.57498210872311	0.9747810381381043	0.8489444262641569	-0.09289370009662695	-2.768241478733288	0.1508786194335664	-0.5924389910352404	1.620007455060173	-1.615803328507795	-1.615803328507575	-0.3309419818772605	0.07895344421378335	0.02351096651015281	0.1656862336704927	-8.537007402169977e-08	-6.906595103299468e-07	2.941583648705113e-07	-1.444058946743472e-07	-3.211373501324381e-07	4.213653500748561e-07	-2.092253438798412e-07
